<svg width="33" height="33" viewBox="0 0 33 33" fill="none" xmlns="http://www.w3.org/2000/svg">
<g clip-path="url(#clip0_2756_1792)">
<mask id="mask0_2756_1792" style="mask-type:luminance" maskUnits="userSpaceOnUse" x="0" y="0" width="33" height="33">
<path d="M33 0H0V33H33V0Z" fill="white"/>
</mask>
<g mask="url(#mask0_2756_1792)">
<path d="M16.5 33C25.6127 33 33 25.6127 33 16.5C33 7.3873 25.6127 0 16.5 0C7.3873 0 0 7.3873 0 16.5C0 25.6127 7.3873 33 16.5 33Z" fill="black" fill-opacity="0.28"/>
<path d="M7.73034 25.0556C7.73034 25.1737 7.82631 25.2697 7.94444 25.2697H12.2222V26.125H7.94444C7.39081 26.125 6.93511 25.7044 6.88022 25.1652L6.875 25.0556V20.7778H7.73034V25.0556ZM26.125 25.0556L26.1198 25.1652C26.0685 25.6683 25.6683 26.0685 25.1652 26.1198L25.0556 26.125H20.7778V25.2697H25.0556C25.1737 25.2697 25.2697 25.1737 25.2697 25.0556V20.7778H26.125V25.0556ZM12.2222 7.73034H7.94444C7.82631 7.73034 7.73034 7.82631 7.73034 7.94444V12.2222H6.875V7.94444C6.875 7.35381 7.35381 6.875 7.94444 6.875H12.2222V7.73034ZM25.1652 6.88022C25.7044 6.93511 26.125 7.39081 26.125 7.94444V12.2222H25.2697V7.94444C25.2697 7.82631 25.1737 7.73034 25.0556 7.73034H20.7778V6.875H25.0556L25.1652 6.88022Z" fill="white"/>
<path d="M20.7775 11.5804H12.222C11.8676 11.5804 11.5803 11.8677 11.5803 12.2221V20.7777C11.5803 21.1321 11.8676 21.4193 12.222 21.4193H20.7775C21.1319 21.4193 21.4192 21.1321 21.4192 20.7777V12.2221C21.4192 11.8677 21.1319 11.5804 20.7775 11.5804Z" stroke="white" stroke-width="1.1"/>
</g>
</g>
<defs>
<clipPath id="clip0_2756_1792">
<rect width="33" height="33" fill="white"/>
</clipPath>
</defs>
</svg>
