<svg width="24" height="24" viewBox="0 0 24 24" fill="none" xmlns="http://www.w3.org/2000/svg">
<g clip-path="url(#clip0_2441_1735)">
<path d="M12 24C18.6274 24 24 18.6274 24 12C24 5.37258 18.6274 0 12 0C5.37258 0 0 5.37258 0 12C0 18.6274 5.37258 24 12 24Z" fill="black" fill-opacity="0.28"/>
<path d="M6.39979 18.1819C6.39979 18.2622 6.46505 18.3275 6.54539 18.3275H9.45448V18.9091H6.54539C6.16889 18.9091 5.859 18.6231 5.82166 18.2564L5.81812 18.1819V15.2728H6.39979V18.1819ZM18.909 18.1819L18.9055 18.2564C18.8706 18.5986 18.5985 18.8707 18.2563 18.9056L18.1818 18.9091H15.2727V18.3275H18.1818C18.2621 18.3275 18.3274 18.2622 18.3274 18.1819V15.2728H18.909V18.1819ZM9.45448 6.39991H6.54539C6.46505 6.39991 6.39979 6.46518 6.39979 6.54551V9.4546H5.81812V6.54551C5.81812 6.14385 6.14373 5.81824 6.54539 5.81824H9.45448V6.39991ZM18.2563 5.82179C18.623 5.85912 18.909 6.16902 18.909 6.54551V9.4546H18.3274V6.54551C18.3274 6.46518 18.2621 6.39991 18.1818 6.39991H15.2727V5.81824H18.1818L18.2563 5.82179Z" fill="white"/>
<path d="M15.2726 9.01819H9.45443C9.21343 9.01819 9.01807 9.21356 9.01807 9.45455V15.2727C9.01807 15.5137 9.21343 15.7091 9.45443 15.7091H15.2726C15.5136 15.7091 15.709 15.5137 15.709 15.2727V9.45455C15.709 9.21356 15.5136 9.01819 15.2726 9.01819Z" stroke="white" stroke-width="0.8"/>
</g>
<defs>
<clipPath id="clip0_2441_1735">
<rect width="24" height="24" fill="white"/>
</clipPath>
</defs>
</svg>
