<svg width="18" height="24" viewBox="0 0 18 24" fill="none" xmlns="http://www.w3.org/2000/svg">
<g clip-path="url(#clip0_2441_1754)">
<path d="M16.9179 24H1.08209C0.498785 24 0.0392875 23.5028 0.0851954 22.9213L1.4273 5.9213C1.46836 5.40115 1.90243 5 2.42419 5H15.5758C16.0976 5 16.5317 5.40115 16.5727 5.9213L17.9148 22.9213C17.9607 23.5028 17.5013 24 16.9179 24Z" fill="#AEAEAE"/>
<path d="M8.9999 9.60003C11.5404 9.60003 13.5999 7.54053 13.5999 5.00002C13.5999 2.45951 11.5404 0.400024 8.9999 0.400024C6.45939 0.400024 4.3999 2.45951 4.3999 5.00002C4.3999 7.54053 6.45939 9.60003 8.9999 9.60003Z" stroke="#AEAEAE" stroke-width="0.8"/>
<path d="M14 9C14 11.7614 11.7614 14 9 14C6.23858 14 4 11.7614 4 9H4.7998C4.7998 11.3196 6.6804 13.2002 9 13.2002C11.3196 13.2002 13.2002 11.3196 13.2002 9H14Z" fill="white"/>
</g>
<defs>
<clipPath id="clip0_2441_1754">
<rect width="18" height="24" fill="white"/>
</clipPath>
</defs>
</svg>
