<svg width="24" height="24" viewBox="0 0 24 24" fill="none" xmlns="http://www.w3.org/2000/svg">
<g clip-path="url(#clip0_2441_1709)">
<g clip-path="url(#clip1_2441_1709)">
<path d="M12 0C14.9609 0 17.4023 2.09405 17.7596 4.8H20.9032C22.6135 4.8 24 6.02802 24 7.54286V21.2571C24 22.772 22.6135 24 20.9032 24H3.09677C1.38647 24 7.4818e-08 22.772 0 21.2571V7.54286C0 6.02802 1.38647 4.8 3.09677 4.8H6.24043C6.59768 2.09405 9.0391 0 12 0ZM12 1.37143C9.96612 1.37143 8.14421 2.79599 7.80093 4.8H16.1991C15.8558 2.79599 14.0339 1.37143 12 1.37143Z" fill="#00864E"/>
<path d="M13.1133 9.80859V19H11.958V11.002H11.9072L9.67285 12.4873V11.332L11.958 9.80859H13.1133Z" fill="white"/>
</g>
</g>
<defs>
<clipPath id="clip0_2441_1709">
<rect width="24" height="24" fill="white"/>
</clipPath>
<clipPath id="clip1_2441_1709">
<rect width="24" height="24" fill="white"/>
</clipPath>
</defs>
</svg>
