<svg width="24" height="24" viewBox="0 0 24 24" fill="none" xmlns="http://www.w3.org/2000/svg">
<path d="M14.857 17.3999C14.6008 17.3999 14.389 17.1947 14.3555 16.9285L14.3509 16.8544L14.3513 7.26608L11.1503 10.7301C10.9531 10.9435 10.6327 10.9443 10.4346 10.7317C10.2546 10.5385 10.2376 10.2355 10.3842 10.0216L10.4331 9.96035L14.4981 5.56035C14.5241 5.53221 14.5522 5.50777 14.5819 5.48703C14.5909 5.48117 14.6 5.4752 14.6093 5.46955C14.6173 5.46435 14.6256 5.45965 14.634 5.45522C14.6463 5.44906 14.6589 5.44304 14.6718 5.43758C14.6817 5.43314 14.6914 5.42943 14.7011 5.42605C14.7132 5.42204 14.726 5.41813 14.7391 5.41477C14.7482 5.41228 14.757 5.4103 14.7658 5.40857C14.7789 5.40615 14.7925 5.40408 14.8062 5.40261C14.8167 5.40134 14.8271 5.40057 14.8375 5.40015C14.8438 5.40004 14.8503 5.3999 14.857 5.3999L14.8766 5.40018C14.8865 5.40059 14.8964 5.40132 14.9063 5.40237L14.857 5.3999C14.8889 5.3999 14.9202 5.40309 14.9505 5.40919C14.9577 5.4106 14.9651 5.41229 14.9725 5.41415C14.9877 5.41803 15.0024 5.4225 15.0168 5.42766C15.0239 5.43019 15.0316 5.43314 15.0392 5.43629C15.0544 5.44266 15.0689 5.44959 15.083 5.45721C15.0897 5.46075 15.0967 5.46472 15.1035 5.46887C15.1148 5.47569 15.1255 5.48271 15.1359 5.49014C15.1433 5.49538 15.1509 5.50118 15.1585 5.50724L15.1643 5.51196C15.1821 5.52665 15.199 5.54259 15.2148 5.55966L15.2153 5.56032L19.281 9.96032C19.4782 10.1738 19.4775 10.5191 19.2795 10.7317C19.0994 10.925 18.8182 10.9419 18.6204 10.783L18.5638 10.7301L15.3635 7.26754L15.3631 16.8544C15.3631 17.1557 15.1365 17.3999 14.857 17.3999Z" fill="#CECECE"/>
<path d="M9.14303 6.6001C9.39925 6.6001 9.611 6.8053 9.64451 7.07154L9.64913 7.14555L9.64872 16.7339L12.8497 13.2699C13.0469 13.0565 13.3673 13.0557 13.5654 13.2683C13.7454 13.4615 13.7624 13.7645 13.6158 13.9784L13.5669 14.0397L9.50194 18.4397C9.47594 18.4678 9.4478 18.4922 9.41809 18.513C9.40915 18.5188 9.4 18.5248 9.39067 18.5305C9.38267 18.5357 9.37436 18.5404 9.36596 18.5448C9.35374 18.5509 9.34112 18.557 9.32823 18.5624C9.3183 18.5669 9.30864 18.5706 9.2989 18.5739C9.28683 18.578 9.27396 18.5819 9.2609 18.5852C9.25178 18.5877 9.243 18.5897 9.23419 18.5914C9.22107 18.5939 9.2075 18.5959 9.19377 18.5974C9.1833 18.5987 9.17293 18.5994 9.16254 18.5999C9.15624 18.6 9.14965 18.6001 9.14303 18.6001L9.12342 18.5998C9.11349 18.5994 9.10357 18.5987 9.09367 18.5976L9.14303 18.6001C9.11109 18.6001 9.07985 18.5969 9.04955 18.5908C9.04231 18.5894 9.03489 18.5877 9.02749 18.5858C9.01225 18.582 8.99758 18.5775 8.9832 18.5723C8.97605 18.5698 8.96842 18.5669 8.96084 18.5637C8.94561 18.5573 8.93109 18.5504 8.91695 18.5428C8.9103 18.5392 8.90334 18.5353 8.89645 18.5311C8.88521 18.5243 8.87453 18.5173 8.86412 18.5099C8.85675 18.5046 8.84908 18.4988 8.84153 18.4928L8.8357 18.488C8.81788 18.4733 8.801 18.4574 8.78516 18.4403L8.78469 18.4397L4.71903 14.0397C4.52179 13.8262 4.52246 13.4809 4.72051 13.2683C4.90056 13.075 5.18175 13.0581 5.37958 13.217L5.43624 13.2699L8.63653 16.7325L8.63693 7.14555C8.63693 6.84431 8.86352 6.6001 9.14303 6.6001Z" fill="#CECECE"/>
</svg>
