<svg width="24" height="24" viewBox="0 0 24 24" fill="none" xmlns="http://www.w3.org/2000/svg">
<path d="M19.8461 3.27278C20.4943 3.3378 21 3.87754 21 4.53327V19.7333L20.9937 19.8631C20.9857 19.941 20.969 20.0165 20.9473 20.0895C20.9289 20.1515 20.9056 20.2112 20.8782 20.2689C20.8736 20.2786 20.868 20.2878 20.8632 20.2973C20.8348 20.3532 20.8038 20.4073 20.7677 20.4582C20.7619 20.4663 20.7549 20.4736 20.7489 20.4816C20.6715 20.5852 20.5791 20.6763 20.4739 20.7526C20.4658 20.7585 20.4583 20.7653 20.4501 20.771C20.3984 20.8066 20.3435 20.8372 20.2868 20.8652C20.2772 20.8698 20.2678 20.8754 20.258 20.88C20.1994 20.907 20.1388 20.9299 20.0758 20.948C20.0018 20.9694 19.9251 20.9859 19.8461 20.9937L19.7143 20.9999H4.28571C4.22295 20.9999 4.1615 20.9936 4.10114 20.9851C4.04025 20.9765 3.98068 20.9647 3.92285 20.948C3.89132 20.9389 3.86041 20.9285 3.82994 20.9171C3.82324 20.9146 3.81649 20.9123 3.80985 20.9096C3.78803 20.901 3.76703 20.8909 3.74581 20.8811C3.72299 20.8707 3.70009 20.8607 3.67801 20.8491C3.67156 20.8457 3.66557 20.8415 3.65918 20.8379C3.63355 20.8237 3.60836 20.8092 3.58385 20.7933C3.56993 20.7843 3.55594 20.7756 3.54241 20.7661C3.51923 20.7499 3.49661 20.733 3.47461 20.7154C3.46979 20.7115 3.46556 20.707 3.4608 20.703C3.43623 20.6828 3.41219 20.662 3.38923 20.6399C3.38074 20.6318 3.37237 20.6236 3.36412 20.6152C3.34324 20.5941 3.3232 20.5722 3.30385 20.5496C3.29811 20.5429 3.29188 20.5367 3.28627 20.5299C3.26914 20.5091 3.25309 20.4874 3.2373 20.4655C3.22823 20.453 3.21955 20.4402 3.21094 20.4273C3.17602 20.3748 3.14488 20.32 3.11802 20.2627C3.11067 20.247 3.10213 20.2317 3.09542 20.2157C3.04922 20.1053 3.01905 19.9867 3.00628 19.8631L3 19.7333V4.53327C3 3.83371 3.57563 3.2666 4.28571 3.2666H19.7143L19.8461 3.27278ZM4.28571 4.27968C4.1437 4.27968 4.02832 4.39335 4.02832 4.53327V8.74766C4.11144 8.73103 4.19761 8.72292 4.28571 8.72292H19.7143C19.8024 8.72292 19.8885 8.73103 19.9717 8.74766V4.53327C19.9717 4.39335 19.8564 4.27968 19.7143 4.27968H4.28571Z" fill="#00A862"/>
<path d="M7.37134 2.50659V5.29326" stroke="#00A862" stroke-width="1.04" stroke-linecap="round"/>
<path d="M16.3713 2.50659V5.29326" stroke="#00A862" stroke-width="1.04" stroke-linecap="round"/>
<path d="M9.42871 17.7501L15.13 12.1333" stroke="white" stroke-width="1.04" stroke-linecap="round"/>
<path d="M9.42878 13.4C10.1389 13.4 10.7145 12.8329 10.7145 12.1334C10.7145 11.4338 10.1389 10.8667 9.42878 10.8667C8.7187 10.8667 8.14307 11.4338 8.14307 12.1334C8.14307 12.8329 8.7187 13.4 9.42878 13.4Z" fill="white"/>
<path d="M14.5716 18.4667C15.2817 18.4667 15.8573 17.8996 15.8573 17.2C15.8573 16.5005 15.2817 15.9333 14.5716 15.9333C13.8615 15.9333 13.2859 16.5005 13.2859 17.2C13.2859 17.8996 13.8615 18.4667 14.5716 18.4667Z" fill="white"/>
</svg>
