<svg width="24" height="24" viewBox="0 0 24 24" fill="none" xmlns="http://www.w3.org/2000/svg">
<path d="M19.5 10.7812C20.577 10.7812 21.45 9.9138 21.45 8.84375C21.45 7.7737 20.577 6.90625 19.5 6.90625C18.4231 6.90625 17.55 7.7737 17.55 8.84375C17.55 9.9138 18.4231 10.7812 19.5 10.7812Z" fill="#DFDFDF"/>
<path d="M19.8 4C21.7883 4 23.4 5.60145 23.4 7.57692V15.9231C23.4 17.8369 21.8873 19.3996 19.9852 19.4954L19.8 19.5H3.6L3.41484 19.4954C2.53626 19.4511 1.74312 19.0914 1.14141 18.5312H0.975V18.3648C0.411535 17.767 0.0491837 16.9797 0.0046875 16.107L0 15.9231V7.57692C0 6.63128 0.371843 5.77368 0.975 5.13409V4.96875H1.14141C1.78512 4.36946 2.64826 4 3.6 4H19.8ZM15.6 18.3077H19.8C21.1255 18.3077 22.2 17.2401 22.2 15.9231V7.57692C22.2 6.25994 21.1255 5.19231 19.8 5.19231H15.6V18.3077Z" fill="#DFDFDF"/>
</svg>
