<svg width="24" height="24" viewBox="0 0 24 24" fill="none" xmlns="http://www.w3.org/2000/svg">
<g clip-path="url(#clip0_2441_1743)">
<path d="M12 24C18.6274 24 24 18.6274 24 12C24 5.37258 18.6274 0 12 0C5.37258 0 0 5.37258 0 12C0 18.6274 5.37258 24 12 24Z" fill="black" fill-opacity="0.28"/>
<path d="M14.7052 6.34094C14.8188 6.22734 15.0035 6.22734 15.1171 6.34094C15.2307 6.45455 15.2307 6.63927 15.1171 6.75288L9.86854 12.0014L15.1171 17.25C15.2307 17.3636 15.2307 17.5483 15.1171 17.6619C15.0035 17.7755 14.8188 17.7755 14.7052 17.6619L9.25065 12.2074L9.04541 12.0014L9.25065 11.7955L14.7052 6.34094Z" fill="white"/>
</g>
<defs>
<clipPath id="clip0_2441_1743">
<rect width="24" height="24" fill="white"/>
</clipPath>
</defs>
</svg>
