<svg width="24" height="24" viewBox="0 0 24 24" fill="none" xmlns="http://www.w3.org/2000/svg">
<g clip-path="url(#clip0_2441_1739)">
<path d="M12 24C18.6274 24 24 18.6274 24 12C24 5.37258 18.6274 0 12 0C5.37258 0 0 5.37258 0 12C0 18.6274 5.37258 24 12 24Z" fill="black" fill-opacity="0.28"/>
<path d="M15.9999 9.81824C17.205 9.81824 18.1818 10.795 18.1818 12.0001V15.6364C18.1818 16.8038 17.265 17.757 16.1122 17.8154L15.9999 17.8182H7.99993L7.88772 17.8154C6.77205 17.7589 5.87748 16.8643 5.82096 15.7486L5.81812 15.6364V12.0001C5.81812 10.795 6.79495 9.81824 7.99993 9.81824H10.1818V10.3999H7.99993C7.11628 10.3999 6.39979 11.1164 6.39979 12.0001V15.6364C6.39979 16.5201 7.11628 17.2366 7.99993 17.2366H15.9999C16.8836 17.2366 17.6001 16.5201 17.6001 15.6364V12.0001C17.6001 11.1164 16.8836 10.3999 15.9999 10.3999H13.8181V9.81824H15.9999Z" fill="white"/>
<path d="M11.9999 5.45458V11.6364M9.81812 6.90912L11.9999 5.09094L14.1818 6.90912" stroke="white" stroke-width="0.8" stroke-linecap="round"/>
</g>
<defs>
<clipPath id="clip0_2441_1739">
<rect width="24" height="24" fill="white"/>
</clipPath>
</defs>
</svg>
