<svg width="24" height="24" viewBox="0 0 24 24" fill="none" xmlns="http://www.w3.org/2000/svg">
<path d="M12.5 3.5C14.1064 3.5 15.5957 4.34997 16.6992 5.79297C17.8031 7.23651 18.5 9.25281 18.5 11.5C18.5 13.7472 17.8031 15.7635 16.6992 17.207C15.5957 18.65 14.1064 19.5 12.5 19.5C10.8936 19.5 9.4043 18.65 8.30078 17.207C7.1969 15.7635 6.5 13.7472 6.5 11.5C6.5 9.25281 7.1969 7.23651 8.30078 5.79297C9.4043 4.34997 10.8936 3.5 12.5 3.5Z" stroke="#966C45"/>
<path d="M12.5 11.5C13.6046 11.5 14.5 10.6046 14.5 9.5C14.5 8.39543 13.6046 7.5 12.5 7.5C11.3954 7.5 10.5 8.39543 10.5 9.5C10.5 10.6046 11.3954 11.5 12.5 11.5Z" stroke="#966C45"/>
</svg>
