<svg width="24" height="24" viewBox="0 0 24 24" fill="none" xmlns="http://www.w3.org/2000/svg">
<path d="M21 5C22.6569 5 24 6.22104 24 7.72727V17.2727C24 18.779 22.6569 20 21 20H3C1.34315 20 4.832e-08 18.779 0 17.2727V15.8398C0.242403 15.8846 0.493071 15.9091 0.75 15.9091C2.82106 15.9091 4.5 14.3828 4.5 12.5C4.5 10.6172 2.82106 9.09091 0.75 9.09091C0.493171 9.09091 0.242314 9.11412 0 9.15882V7.72727C4.832e-08 6.22104 1.34315 5 3 5H21Z" fill="#DFDFDF"/>
<path d="M9 7.04547C9 6.66891 8.66421 6.36365 8.25 6.36365C7.83579 6.36365 7.5 6.66891 7.5 7.04547V8.4091C7.5 8.78566 7.83579 9.09092 8.25 9.09092C8.66421 9.09092 9 8.78566 9 8.4091V7.04547Z" fill="white"/>
<path d="M9 11.1364C9 10.7599 8.66421 10.4546 8.25 10.4546C7.83579 10.4546 7.5 10.7599 7.5 11.1364V12.5C7.5 12.8766 7.83579 13.1819 8.25 13.1819C8.66421 13.1819 9 12.8766 9 12.5V11.1364Z" fill="white"/>
<path d="M9 15.2272C9 14.8507 8.66421 14.5454 8.25 14.5454C7.83579 14.5454 7.5 14.8507 7.5 15.2272V16.5909C7.5 16.9674 7.83579 17.2727 8.25 17.2727C8.66421 17.2727 9 16.9674 9 16.5909V15.2272Z" fill="white"/>
</svg>
