<svg width="19" height="19" viewBox="0 0 19 19" fill="none" xmlns="http://www.w3.org/2000/svg">
<path d="M9.11199 0.29575C9.23411 -0.0985844 9.76588 -0.0985829 9.888 0.295752L11.851 6.63387C11.9056 6.81023 12.0622 6.92963 12.239 6.92963H18.5912C18.9864 6.92963 19.1508 7.4602 18.8311 7.70391L13.692 11.6211C13.5489 11.7301 13.4891 11.9233 13.5437 12.0996L15.5066 18.4377C15.6288 18.832 15.1986 19.16 14.8789 18.9163L9.73979 14.9992C9.5968 14.8902 9.40319 14.8902 9.26019 14.9992L4.1211 18.9163C3.80137 19.16 3.37116 18.832 3.49329 18.4377L5.45625 12.0996C5.51086 11.9233 5.45104 11.7301 5.30805 11.6211L0.168955 7.70391C-0.150781 7.4602 0.0135432 6.92963 0.408758 6.92963H6.76102C6.93777 6.92963 7.0944 6.81023 7.14903 6.63387L9.11199 0.29575Z" fill="#00A862"/>
</svg>
