<svg width="24" height="24" viewBox="0 0 24 24" fill="none" xmlns="http://www.w3.org/2000/svg">
<g clip-path="url(#clip0_2441_1762)">
<path d="M11.4842 0.353653C11.6382 -0.120164 12.3085 -0.120162 12.4624 0.353654L14.9369 7.96928C15.0058 8.18119 15.2032 8.32465 15.426 8.32465H23.4335C23.9317 8.32465 24.139 8.96216 23.7359 9.255L17.2577 13.9617C17.0774 14.0927 17.002 14.3248 17.0708 14.5367L19.5452 22.1523C19.6991 22.6261 19.1569 23.0202 18.7539 22.7274L12.2756 18.0207C12.0954 17.8897 11.8513 17.8897 11.671 18.0207L5.19279 22.7274C4.78974 23.0202 4.24743 22.6261 4.40139 22.1523L6.87586 14.5367C6.9447 14.3248 6.86929 14.0927 6.68903 13.9617L0.210784 9.255C-0.192269 8.96216 0.0148751 8.32465 0.513076 8.32465H8.52063C8.74343 8.32465 8.94088 8.18119 9.00975 7.96928L11.4842 0.353653Z" fill="#00A862"/>
</g>
<defs>
<clipPath id="clip0_2441_1762">
<rect width="24" height="24" fill="white"/>
</clipPath>
</defs>
</svg>
