<svg width="24" height="24" viewBox="0 0 24 24" fill="none" xmlns="http://www.w3.org/2000/svg">
<path d="M5.85545 23.092L4.10076 4.09196C4.04664 3.50585 4.50793 3 5.09653 3H18.9033C19.4919 3 19.9532 3.50585 19.8991 4.09196L18.1444 23.092C18.0969 23.6064 17.6653 24 17.1486 24H6.85122C6.33456 24 5.90297 23.6064 5.85545 23.092Z" fill="#33B981"/>
<path d="M2 4C2 2.34315 3.34315 1 5 1H19C20.6569 1 22 2.34315 22 4V5H2V4Z" fill="#33B981"/>
<path d="M12 16C14.2091 16 16 14.2091 16 12C16 9.79086 14.2091 8 12 8C9.79086 8 8 9.79086 8 12C8 14.2091 9.79086 16 12 16Z" fill="white"/>
</svg>
