<svg width="24" height="24" viewBox="0 0 24 24" fill="none" xmlns="http://www.w3.org/2000/svg">
<path d="M12.2681 1.57626C12.6243 1.25127 13.1752 1.25127 13.5314 1.57626L22.4237 9.68941C23.0425 10.254 22.6363 11.2718 21.7921 11.2718H4.00734C3.16323 11.2718 2.75698 10.254 3.37575 9.68941L12.2681 1.57626Z" fill="#AEAEAE"/>
<path d="M18.4712 2.82605H17.5426C17.0297 2.82605 16.614 3.23483 16.614 3.73909V8.30431C16.614 8.80857 17.0297 9.21735 17.5426 9.21735H18.4712C18.984 9.21735 19.3997 8.80857 19.3997 8.30431V3.73909C19.3997 3.23483 18.984 2.82605 18.4712 2.82605Z" fill="#AEAEAE"/>
<path d="M21.2569 20.1739C21.2569 21.1824 20.4254 22 19.3997 22H15.6854V17.9822C15.6853 16.1671 14.4381 14.6956 12.8997 14.6956C11.3614 14.6956 10.1142 16.1671 10.114 17.9822V22H5.47116C4.44548 22 3.61401 21.1824 3.61401 20.1739V11.0435H21.2569V20.1739Z" fill="#AEAEAE"/>
</svg>
